<svg xmlns="http://www.w3.org/2000/svg" viewBox="0 0 64 64" id="portfolio">
  <g>
    <rect width="52" height="19" x="6" y="37" fill="#a78966"></rect>
    <path fill="#806749" d="M58,56v2a3,3,0,0,1-3,3H9a3,3,0,0,1-3-3V56Z"></path>
    <rect width="52" height="1" x="6" y="37" fill="#7d674d"></rect>
    <polygon fill="#57565c" points="21 10 21 13 17 13 17 10 19 10 21 10"></polygon>
    <polygon fill="#57565c" points="47 10 47 13 43 13 43 10 45 10 47 10"></polygon>
    <rect width="8" height="4" x="15" y="13" fill="#e0e0e2"></rect>
    <rect width="8" height="4" x="41" y="13" fill="#e0e0e2"></rect>
    <path fill="#b39a7c" d="M61,23V35a2.006,2.006,0,0,1-2,2H5a2.006,2.006,0,0,1-2-2V23a6,6,0,0,1,6-6H55A6,6,0,0,1,61,23Z"></path>
    <rect width="6" height="3" x="15" y="45" fill="#e0e0e2"></rect>
    <polygon fill="#e0e0e2" points="21 37 21 41 15 41 15 37 15 32 21 32 21 37"></polygon>
    <rect width="6" height="3" x="43" y="45" fill="#e0e0e2"></rect>
    <polygon fill="#e0e0e2" points="49 37 49 41 43 41 43 37 43 32 49 32 49 37"></polygon>
    <rect width="8" height="4" x="42" y="41" fill="#57565c"></rect>
    <rect width="8" height="4" x="14" y="41" fill="#57565c"></rect>
    <rect width="6" height="1" x="15" y="45" fill="#3e3d42"></rect>
    <rect width="6" height="1" x="43" y="45" fill="#3e3d42"></rect>
    <rect width="2" height="6" x="16" y="33" fill="#fff" rx="1"></rect>
    <rect width="2" height="6" x="44" y="33" fill="#fff" rx="1"></rect>
    <rect width="15" height="4" x="7" y="19" fill="#c4b099" rx="2"></rect>
    <path fill="#898890" d="M46,10H44V5a1,1,0,0,0-1-1H21a1,1,0,0,0-1,1v5H18V5a3,3,0,0,1,3-3H43a3,3,0,0,1,3,3Z"></path>
  </g>
</svg>
